<svg xmlns="http://www.w3.org/2000/svg" xmlns:xlink="http://www.w3.org/1999/xlink" viewBox="7192 2620 150 150">
  <defs>
    <style>
      .cls-1 {
        fill: #fff;
      }

      .cls-2 {
        clip-path: url(#clip-path);
      }

      .cls-3 {
        fill: #ff981a;
      }
    </style>
    <clipPath id="clip-path">
      <rect id="Rectangle_339" data-name="Rectangle 339" width="100" height="100"/>
    </clipPath>
  </defs>
  <g id="Bitcoin_Logo" data-name="Bitcoin Logo" transform="translate(7102 2495)">
    <circle id="Ellipse_11" data-name="Ellipse 11" class="cls-1" cx="75" cy="75" r="75" transform="translate(90 125)"/>
    <g id="Group_677" data-name="Group 677" class="cls-2" transform="translate(115 150)">
      <path id="Path_267" data-name="Path 267" class="cls-3" d="M169.27,103.355a13.566,13.566,0,0,0-7.891-4.648q6.709-3.428,5.9-11.621a11.324,11.324,0,0,0-1.641-5.156,10.189,10.189,0,0,0-3.711-3.516,20.9,20.9,0,0,0-5.1-2.031,40.622,40.622,0,0,0-6.309-1.016V64h-6.934V75.035l-5.508.1V64h-6.934V75.367H117.22V82.75h5c2.285,0,3.613,1.016,4,3.066V116.91a2.416,2.416,0,0,1-2.617,2.3h-5l-1.406,8.242,13.926.039V139h6.934V127.633l5.508.039V139H150.5V127.516a53.539,53.539,0,0,0,6.563-.684,25.516,25.516,0,0,0,5.469-1.562,14.738,14.738,0,0,0,4.375-2.637,12.4,12.4,0,0,0,2.91-4,17.213,17.213,0,0,0,1.465-5.645C171.692,108.824,171.009,105.6,169.27,103.355ZM138.216,83.238c.215,0,.8,0,1.777-.02s1.8-.039,2.441-.039c3.359-.078,7.48.293,10.059,2.715a5.79,5.79,0,0,1,1.895,4.1v.2a5.363,5.363,0,0,1-1.738,4.121c-2.91,2.578-7.129,2.715-10.8,2.793-1.211.02-2.422-.02-3.633-.02Zm18.945,30.7c-.879,2.129-2.852,3.281-4.922,4.043a29.488,29.488,0,0,1-10.2,1.328c-.566,0-1.289,0-2.168-.02s-1.426-.02-1.66-.02V104.039c.234,0,.957-.02,2.148-.039,3.906-.1,7.969-.176,11.719,1.094a14.76,14.76,0,0,1,2.4,1.074A6.448,6.448,0,0,1,157.161,113.941Z" transform="translate(-94.309 -51.5)"/>
    </g>
  </g>
</svg>
