<svg xmlns="http://www.w3.org/2000/svg" xmlns:xlink="http://www.w3.org/1999/xlink" viewBox="-3477 0 1920 1300">
  <defs>
    <style>
      .cls-1 {
        clip-path: url(#clip-Discord_Branding);
      }

      .cls-2 {
        font-size: 164px;
        font-family: UniSansHeavyCAPS, Uni Sans CAPS;
      }

      .cls-3, .cls-4 {
        font-size: 87px;
      }

      .cls-3 {
        font-family: WhitneyHTF-Book, Whitney HTF;
      }

      .cls-4 {
        font-family: WhitneyHTF-BookSC, Whitney HTF SC;
      }

      .cls-5 {
        fill: #7289da;
      }

      .cls-6 {
        fill: #fff;
      }

      .cls-7 {
        fill: #99aab5;
      }

      .cls-8 {
        fill: #2c2f33;
      }

      .cls-9 {
        fill: #23272a;
      }
    </style>
    <clipPath id="clip-Discord_Branding">
      <rect x="-3477" width="1920" height="1300"/>
    </clipPath>
  </defs>
  <g id="Discord_Branding" data-name="Discord Branding" class="cls-1">
    <rect class="cls-6" x="-3477" width="1920" height="1300"/>
    <g id="Group_3" data-name="Group 3" transform="translate(-3477 75.642)">
      <rect id="Rectangle_44" data-name="Rectangle 44" width="1920" height="227.131" transform="translate(0 997.386)"/>
      <g id="Group_1" data-name="Group 1" transform="translate(98.233)">
        <path id="Path_1" data-name="Path 1" d="M240.077,136.579c-9.393,0-16.72,8.078-16.72,18.035s7.515,18.035,16.72,18.035c9.393,0,16.72-8.078,16.72-18.035C256.985,144.658,249.282,136.579,240.077,136.579Zm-59.93,0c-9.393,0-16.72,8.078-16.72,18.035s7.515,18.035,16.72,18.035c9.393,0,16.72-8.078,16.72-18.035C197.055,144.658,189.541,136.579,180.147,136.579ZM319.92,0H99.928A33.594,33.594,0,0,0,66.3,33.628v220.18a33.594,33.594,0,0,0,33.628,33.628H286.292l-8.642-30.059,21.041,19.35,19.914,18.223,35.507,30.81V33.628A34.325,34.325,0,0,0,319.92,0ZM256.609,212.665s-5.824-7.139-10.9-13.151c21.6-6.012,29.683-19.35,29.683-19.35a96.315,96.315,0,0,1-18.975,9.769,126.368,126.368,0,0,1-23.859,7.139,114.444,114.444,0,0,1-42.458-.188,129.129,129.129,0,0,1-24.235-7.139,85.034,85.034,0,0,1-12.023-5.636,5.624,5.624,0,0,0-1.5-.751,2.325,2.325,0,0,1-.564-.376,45.232,45.232,0,0,1-4.509-2.818s7.89,12.963,28.744,19.162c-4.885,6.2-11.084,13.526-11.084,13.526-36.258-1.127-50.16-24.8-50.16-24.8,0-52.415,23.671-94.873,23.671-94.873,23.671-17.659,46.027-17.1,46.027-17.1l1.691,1.879c-29.5,8.454-43.022,21.417-43.022,21.417s3.569-1.879,9.769-4.509c17.66-7.7,31.562-9.769,37.2-10.333a14.5,14.5,0,0,1,2.818-.376,139.3,139.3,0,0,1,33.252-.376,137.78,137.78,0,0,1,49.409,15.593s-12.963-12.4-40.955-20.665l2.254-2.63s22.544-.564,46.027,17.1c0,0,23.671,42.458,23.671,94.873.188-.188-13.714,23.483-49.973,24.611Zm247.984-142.4H450.112v61.245L486.37,164.2V104.83h19.35c12.4,0,18.411,5.824,18.411,15.405V165.7c0,9.581-5.824,15.969-18.411,15.969h-55.8v34.568h54.481c29.307.188,56.736-14.466,56.736-47.906V119.483C561.329,85.292,533.9,70.262,504.594,70.262Zm285.746,98.067v-50.16c0-18.035,32.5-22.168,42.458-4.133l30.059-12.211C851.02,75.9,829.6,68.384,811.568,68.384c-29.307,0-58.239,16.908-58.239,49.785v50.348c0,33.252,28.932,49.785,57.487,49.785,18.411,0,40.391-9.018,52.6-32.689l-32.125-14.841c-7.89,20.1-40.955,15.217-40.955-2.442Zm-99.194-43.4c-11.272-2.442-18.975-6.575-19.35-13.714.563-16.908,26.865-17.659,42.082-1.315l24.235-18.6c-15.029-18.411-32.125-23.3-49.785-23.3-26.865,0-52.791,15.029-52.791,43.773,0,27.8,21.417,42.646,44.9,46.4,12.023,1.691,25.362,6.387,24.986,14.654-.939,15.593-33.252,14.841-47.718-3.006l-23.671,21.793c13.714,17.659,32.125,26.489,49.6,26.489,26.865,0,56.548-15.405,57.675-43.773,1.691-35.507-24.235-44.524-50.161-49.409Zm-110.09,91.3h36.822V70.262H581.055ZM1201.392,70.262h-54.481v61.245l36.258,32.689V104.83h19.35c12.4,0,18.411,5.824,18.411,15.405V165.7c0,9.581-5.824,15.969-18.411,15.969h-55.8v34.568h54.669c29.307.188,56.736-14.466,56.736-47.906V119.483C1258.128,85.292,1230.7,70.262,1201.392,70.262ZM933.869,68.384c-30.246,0-60.305,16.344-60.305,49.973v49.785c0,33.252,30.246,50.16,60.681,50.16,30.246,0,60.305-16.72,60.305-50.16V118.356C994.363,84.916,964.116,68.384,933.869,68.384Zm23.671,99.757c0,10.521-11.836,15.969-23.483,15.969-11.836,0-23.671-5.072-23.671-15.969V118.356c0-10.708,11.46-16.344,22.92-16.344,12.024,0,24.235,5.072,24.235,16.344v49.785Zm168.892-49.785c-.752-34.192-24.235-47.906-54.294-47.906H1013.9V216.235h37.2V170.02h6.575l33.816,46.4h46.027l-39.828-50.16C1115.537,160.626,1126.433,145.409,1126.433,118.356Zm-53.542,19.726h-21.6V104.83h21.6C1096.187,104.83,1096.187,138.082,1072.891,138.082Z" transform="translate(-39.977)"/>
        <path id="Path_2" data-name="Path 2" d="M925.235,144.894c-9.393,0-16.72,8.266-16.72,18.223s7.515,18.223,16.72,18.223c9.393,0,16.72-8.266,16.72-18.223C942.143,153.16,934.629,144.894,925.235,144.894Zm59.93,0c-9.393,0-16.72,8.266-16.72,18.223s7.515,18.223,16.72,18.223c9.393,0,16.72-8.266,16.72-18.223S994.558,144.894,985.165,144.894ZM1065.008,7H844.828A33.635,33.635,0,0,0,811.2,40.816V262.875a33.635,33.635,0,0,0,33.628,33.816h186.364l-8.642-30.434,21.041,19.538,19.914,18.411,35.319,31.186V41C1098.636,22.217,1083.607,7,1065.008,7Zm-63.5,214.544s-5.824-7.139-10.9-13.339c21.6-6.012,29.683-19.538,29.683-19.538a96.315,96.315,0,0,1-18.974,9.769A114.614,114.614,0,0,1,935,205.387a144.924,144.924,0,0,1-24.235-7.139,85.034,85.034,0,0,1-12.024-5.636,5.625,5.625,0,0,0-1.5-.751q-.564-.282-.564-.564a45.248,45.248,0,0,1-4.509-2.818s7.89,13.151,28.744,19.35c-4.885,6.2-11.084,13.714-11.084,13.714-36.258-1.127-50.161-24.986-50.161-24.986,0-52.978,23.671-95.812,23.671-95.812,23.671-17.659,46.215-17.284,46.215-17.284l1.691,1.879c-29.5,8.454-43.209,21.6-43.209,21.6s3.569-1.879,9.769-4.7c17.66-7.7,31.562-9.769,37.2-10.333a14.5,14.5,0,0,1,2.818-.376,139.3,139.3,0,0,1,33.252-.376,134.7,134.7,0,0,1,49.409,15.781s-12.963-12.4-40.955-20.853l2.254-2.63s22.544-.564,46.215,17.284c0,0,23.671,42.834,23.671,95.812C1051.858,196.558,1037.955,220.417,1001.509,221.544Z" transform="translate(614.543 6.151)"/>
        <path id="Path_3" data-name="Path 3" d="M115.233,220.879H66.388V276.3l32.5,29.5v-53.73H116.36c11.084,0,16.532,5.448,16.532,13.9V307.11c0,8.454-5.072,14.278-16.532,14.278H66.2v31h48.845c26.114.188,50.724-12.963,50.724-43.209V264.84C165.957,234.217,141.347,220.879,115.233,220.879ZM371.3,309.364V264.088c0-16.344,29.119-20.1,37.949-3.757l26.865-11.084C425.589,225.763,406.239,219,390.27,219c-26.113,0-52.039,15.217-52.039,45.088v45.276c0,29.871,25.926,45.088,51.476,45.088,16.532,0,36.258-8.266,47.155-29.5L407.93,311.618c-6.951,18.035-36.634,13.714-36.634-2.254Zm-89.049-39.076c-10.145-2.254-16.908-5.824-17.284-12.211.564-15.217,24.047-15.781,37.761-1.127l21.6-16.72c-13.526-16.72-28.931-21.041-44.712-21.041-24.047,0-47.155,13.526-47.155,39.452,0,25.174,19.162,38.513,40.2,41.706,10.708,1.5,22.732,5.824,22.356,13.151-.939,14.09-29.683,13.339-42.834-2.63l-20.665,19.726c12.211,15.781,28.931,23.859,44.524,23.859,24.047,0,50.536-13.9,51.663-39.452.939-32.5-22.356-40.579-45.464-44.712Zm-98.442,82.1h32.877V220.879H183.8Zm555.71-131.507H690.67V276.3l32.5,29.5v-53.73h17.284c11.084,0,16.532,5.448,16.532,13.9V307.11c0,8.454-5.072,14.278-16.532,14.278H690.482v31h48.845c26.113.188,50.724-12.963,50.724-43.209V264.84C790.239,234.217,765.629,220.879,739.515,220.879ZM499.8,219c-27.053,0-53.918,14.841-53.918,45.088v45.088c0,30.247,27.053,45.088,54.294,45.088,27.053,0,53.918-15.029,53.918-45.088V264.088C554.09,234.029,526.85,219,499.8,219Zm21.229,90.176c0,9.393-10.521,14.278-21.041,14.278s-21.229-4.7-21.229-14.278V264.088c0-9.769,10.333-14.842,20.665-14.842,10.708,0,21.6,4.7,21.6,14.842v45.088Zm151.233-45.088c-.751-30.81-21.6-43.209-48.47-43.209H571.562V352.573H605V310.679h5.824l30.247,41.706h41.143L646.521,307.3C662.49,302.225,672.259,288.7,672.259,264.088Zm-47.906,17.847H605V251.877h19.35c20.853,0,20.853,30.059,0,30.059Z" transform="translate(-40.065 192.429)"/>
        <path id="Path_4" data-name="Path 4" d="M813.918,228.136c-32.877-24.611-64.062-23.859-64.062-23.859l-3.194,3.569c38.7,11.836,56.736,28.932,56.736,28.932a184.814,184.814,0,0,0-68.572-21.793,197.129,197.129,0,0,0-46.027.376,30.93,30.93,0,0,0-3.945.376c-7.89.751-27.428,3.569-51.663,14.278-8.454,3.945-13.526,6.575-13.526,6.575s18.974-18.035,59.93-29.871l-2.254-2.818s-31.186-.751-64.063,23.859c0,0-32.877,59.554-32.877,132.822,0,0,19.162,33.065,69.511,34.568,0,0,8.454-10.333,15.217-18.975C636.2,367.533,625.3,349.31,625.3,349.31s2.254,1.5,6.388,3.945a5.135,5.135,0,0,0,.939.751c.751.376,1.315.751,2.066,1.127a130.378,130.378,0,0,0,16.72,7.7,193.763,193.763,0,0,0,33.44,9.769,161.579,161.579,0,0,0,92.055-9.581A129.053,129.053,0,0,0,803.022,349.5s-11.46,18.6-41.331,27.053c6.763,8.642,15.029,18.411,15.029,18.411,50.348-1.5,69.7-34.568,69.7-34.568C846.8,287.69,813.918,228.136,813.918,228.136ZM671.14,339.917c-12.775,0-23.3-11.46-23.3-25.362s10.333-25.362,23.3-25.362,23.483,11.46,23.3,25.362S684.1,339.917,671.14,339.917Zm83.037,0c-12.775,0-23.3-11.46-23.3-25.362s10.333-25.362,23.3-25.362,23.3,11.46,23.3,25.362S767.328,339.917,754.177,339.917Z" transform="translate(411.747 179.16)"/>
        <text id="UNI_SANS_HEAVY_CAPS" data-name="UNI SANS HEAVY CAPS" class="cls-2" transform="translate(0 775.591)"><tspan x="0" y="0">UNI SANS HEAVY CAPS</tspan></text>
        <text id="Whitney_Medium" data-name="Whitney Medium" class="cls-3" transform="translate(16.741 908.992)"><tspan x="0" y="0">Whitney Medium</tspan></text>
        <text id="Whitney_Small_Caps" data-name="Whitney Small Caps" class="cls-4" transform="translate(878.474 907.992)"><tspan x="0" y="0">Whitney Small Caps</tspan></text>
        <path id="Path_5" data-name="Path 5" d="M988.619,328.438V267.381c0-42.27-33.816-60.681-69.886-60.681H851.476v76.274L896,323.741v-74.02h24.047c15.217,0,22.732,7.515,22.732,19.35V325.62c0,11.836-7.139,19.726-22.732,19.726H851.1v43.021h67.444C954.615,388.367,988.619,370.332,988.619,328.438Z" transform="translate(649.602 181.621)"/>
        <rect id="Rectangle_45" data-name="Rectangle 45" width="3.382" height="99.757" transform="translate(779.669 829.245)"/>
      </g>
      <g id="Group_2" data-name="Group 2" transform="translate(204.587 1049.237)">
        <path id="Path_6" data-name="Path 6" class="cls-5" d="M167.7,558.5h0a58.77,58.77,0,0,0-58.8,58.8h0a58.77,58.77,0,0,0,58.8,58.8h0a58.77,58.77,0,0,0,58.8-58.8h0A59.011,59.011,0,0,0,167.7,558.5Z" transform="translate(-108.9 -558.5)"/>
        <path id="Path_7" data-name="Path 7" class="cls-6" d="M353.1,558.5h0a58.77,58.77,0,0,0-58.8,58.8h0a58.77,58.77,0,0,0,58.8,58.8h0a58.77,58.77,0,0,0,58.8-58.8h0A58.77,58.77,0,0,0,353.1,558.5Z" transform="translate(54.005 -558.5)"/>
        <path id="Path_8" data-name="Path 8" class="cls-7" d="M538.5,558.5h0a58.77,58.77,0,0,0-58.8,58.8h0a58.77,58.77,0,0,0,58.8,58.8h0a58.77,58.77,0,0,0,58.8-58.8h0A58.77,58.77,0,0,0,538.5,558.5Z" transform="translate(216.911 -558.5)"/>
        <path id="Path_9" data-name="Path 9" class="cls-8" d="M723.9,558.5h0a58.77,58.77,0,0,0-58.8,58.8h0a58.77,58.77,0,0,0,58.8,58.8h0a58.77,58.77,0,0,0,58.8-58.8h0A58.77,58.77,0,0,0,723.9,558.5Z" transform="translate(379.816 -558.5)"/>
        <path id="Path_10" data-name="Path 10" class="cls-9" d="M909.3,558.5h0a58.77,58.77,0,0,0-58.8,58.8h0a58.77,58.77,0,0,0,58.8,58.8h0a58.77,58.77,0,0,0,58.8-58.8h0A58.77,58.77,0,0,0,909.3,558.5Z" transform="translate(542.721 -558.5)"/>
      </g>
    </g>
  </g>
</svg>
