<svg xmlns="http://www.w3.org/2000/svg" xmlns:xlink="http://www.w3.org/1999/xlink" viewBox="550 0 480 320">
  <defs>
    <style>
      .cls-1, .cls-11, .cls-13, .cls-15, .cls-4, .cls-6, .cls-8 {
        fill: #fff;
      }

      .cls-1 {
        stroke: #95989a;
      }

      .cls-2 {
        clip-path: url(#clip-miner);
      }

      .cls-3, .cls-5 {
        fill: #212121;
      }

      .cls-5, .cls-6 {
        font-size: 20px;
        font-family: WhitneyHTF-SemiBoldSC, Whitney HTF SC;
      }

      .cls-15, .cls-5, .cls-6, .cls-8 {
        font-weight: 600;
      }

      .cls-7 {
        fill: #545454;
      }

      .cls-8 {
        font-size: 16px;
      }

      .cls-15, .cls-8 {
        font-family: WhitneyHTF-SemiBold, Whitney HTF;
      }

      .cls-9 {
        fill: #787878;
        fill-rule: evenodd;
      }

      .cls-10 {
        fill: #3e3e3e;
      }

      .cls-11 {
        font-size: 34px;
      }

      .cls-11, .cls-13 {
        font-family: WhitneyHTF-Bold, Whitney HTF;
        font-weight: 700;
      }

      .cls-12 {
        clip-path: url(#clip-path);
      }

      .cls-13 {
        font-size: 28px;
      }

      .cls-14 {
        fill: rgba(255,255,255,0.3);
      }

      .cls-15 {
        font-size: 10px;
        opacity: 0.3;
      }
    </style>
    <clipPath id="clip-path">
      <rect id="Rectangle_5" data-name="Rectangle 5" class="cls-1" width="26" height="26" transform="translate(701 -88)"/>
    </clipPath>
    <clipPath id="clip-miner">
      <rect x="550" width="480" height="320"/>
    </clipPath>
  </defs>
  <g id="miner" class="cls-2">
    <rect class="cls-4" x="550" width="480" height="320"/>
    <rect id="Rectangle_1" data-name="Rectangle 1" class="cls-3" width="480" height="320" transform="translate(550)"/>
    <rect id="Rectangle_2" data-name="Rectangle 2" class="cls-4" width="240" height="48" transform="translate(790)"/>
    <text id="logs" class="cls-5" transform="translate(910 32)"><tspan x="-19.21" y="0">logs</tspan></text>
    <rect id="Rectangle_4" data-name="Rectangle 4" class="cls-3" width="240" height="48" transform="translate(550)"/>
    <text id="miner-2" data-name="miner" class="cls-6" transform="translate(670 32)"><tspan x="-24.88" y="0">miner</tspan></text>
    <rect id="Rectangle_3" data-name="Rectangle 3" class="cls-7" width="480" height="64" transform="translate(550 257)"/>
    <text id="Nadeko_miner_is_enabled." data-name="Nadeko miner is enabled." class="cls-8" transform="translate(614 294)"><tspan x="0" y="0">Nadeko miner is enabled.</tspan></text>
    <path id="switch_path" class="cls-9" d="M37,10a6.957,6.957,0,0,1-7,7H10a6.957,6.957,0,0,1-7-7H3a6.957,6.957,0,0,1,7-7H30a6.957,6.957,0,0,1,7,7Z" transform="translate(966 278)"/>
    <path id="switch_button" class="cls-4" d="M10,0A10,10,0,1,1,0,10,10,10,0,0,1,10,0Z" transform="translate(986 278)"/>
    <path id="ic_info_24px" class="cls-4" d="M12,2A10,10,0,1,0,22,12,10,10,0,0,0,12,2Zm1,15H11V11h2Zm0-8H11V7h2Z" transform="translate(570 276)"/>
    <path id="Path_1" data-name="Path 1" class="cls-10" d="M.5.5h274v84H.5Z" transform="translate(562 60.5)"/>
    <path id="Path_3" data-name="Path 3" class="cls-10" d="M22.5.5h170v84H22.5Z" transform="translate(826 60.5)"/>
    <text id="flowers_earned" data-name="flowers earned" class="cls-6" transform="translate(578 87)"><tspan x="0" y="0">flowers earned</tspan></text>
    <text id="_94.83" data-name="94.83" class="cls-11" transform="translate(616 131)"><tspan x="0" y="0">94.83</tspan></text>
    <g id="Mask_Group_1" data-name="Mask Group 1" class="cls-12" transform="translate(-123 194)">
      <path id="Subtraction_1" data-name="Subtraction 1" class="cls-4" d="M14.666,20.681c-.882,0-1.693-.576-2.631-1.867A9.041,9.041,0,0,1,10.7,15.885a9.051,9.051,0,0,1-1.335,2.929c-.938,1.291-1.749,1.867-2.631,1.867a3.446,3.446,0,0,1-1.82-.661A1.552,1.552,0,0,0,5.2,18.941a.47.47,0,0,0-.16-.317.391.391,0,0,0-.234-.064,1.478,1.478,0,0,0-1.056.616c-1.652-1.361-1.712-2.566-.23-4.606a9.046,9.046,0,0,1,2.373-2.175c-.184.009-.369.014-.554.014A8.718,8.718,0,0,1,2.7,12.03C.3,11.251-.362,10.24.175,8.169a1.587,1.587,0,0,0,.483.074c.432,0,.812-.166.884-.385.1-.3-.334-.863-.923-1.055.56-1.422,1.265-2,2.433-2a6.221,6.221,0,0,1,1.878.361,9.047,9.047,0,0,1,2.8,1.585,9.042,9.042,0,0,1-.642-3.155C7.089,1.069,7.845.13,9.981,0a1.613,1.613,0,0,0,.242.835A.665.665,0,0,0,10.7,1.2c.314,0,.718-.584.718-1.2,2.136.13,2.893,1.069,2.893,3.591a9.052,9.052,0,0,1-.642,3.155,9.06,9.06,0,0,1,2.8-1.586,6.228,6.228,0,0,1,1.877-.36c1.168,0,1.873.58,2.433,2a1.553,1.553,0,0,0-.866.7.469.469,0,0,0-.057.35c.071.22.451.385.883.385a1.594,1.594,0,0,0,.485-.074c.536,2.072-.125,3.083-2.522,3.861a8.718,8.718,0,0,1-2.644.378q-.278,0-.554-.014a9.046,9.046,0,0,1,2.373,2.175c1.482,2.04,1.422,3.246-.229,4.606a1.479,1.479,0,0,0-1.056-.616.389.389,0,0,0-.233.064c-.254.184-.238.895.127,1.4A3.449,3.449,0,0,1,14.666,20.681ZM10.7,8.426a2.407,2.407,0,1,0,2.407,2.407A2.41,2.41,0,0,0,10.7,8.426Z" transform="translate(703.059 -85.581)"/>
    </g>
    <text id="speed" class="cls-6" transform="translate(1002 87)"><tspan x="-46.82" y="0">speed</tspan></text>
    <text id="_284" data-name="284" class="cls-11" transform="translate(967 131)"><tspan x="-59.534" y="0">284</tspan></text>
    <path id="ic_memory_24px" class="cls-4" d="M18.667,10.833H10.833v7.833h7.833Zm-2.611,5.222H13.444V13.444h2.611ZM26.5,13.444V10.833H23.889V8.222a2.619,2.619,0,0,0-2.611-2.611H18.667V3H16.056V5.611H13.444V3H10.833V5.611H8.222A2.619,2.619,0,0,0,5.611,8.222v2.611H3v2.611H5.611v2.611H3v2.611H5.611v2.611a2.619,2.619,0,0,0,2.611,2.611h2.611V26.5h2.611V23.889h2.611V26.5h2.611V23.889h2.611a2.619,2.619,0,0,0,2.611-2.611V18.667H26.5V16.056H23.889V13.444Zm-5.222,7.833H8.222V8.222H21.278Z" transform="translate(975.5 104.25)"/>
    <path id="Path_4" data-name="Path 4" class="cls-10" d="M.5.5h274v84H.5Z" transform="translate(562 158.5)"/>
    <text id="effort" class="cls-6" transform="translate(578 188)"><tspan x="0" y="0">effort</tspan></text>
    <text id="_60_" data-name="60%" class="cls-13" transform="translate(759 196)"><tspan x="0" y="0">60%</tspan></text>
    <rect id="pressed_slider_bar" class="cls-14" width="240" height="3.999" transform="translate(578 224)"/>
    <rect id="pressed_slider_active" class="cls-4" width="144" height="3.999" transform="translate(578 225.001)"/>
    <circle id="Ellipse_1" data-name="Ellipse 1" class="cls-4" cx="6" cy="6" r="6" transform="translate(713 221)"/>
    <text id="_0" data-name="0" class="cls-15" transform="translate(578 217)"><tspan x="0" y="0">0</tspan></text>
    <text id="_100" data-name="100" class="cls-15" transform="translate(818 217)"><tspan x="-16.36" y="0">100</tspan></text>
    <path id="Path_5" data-name="Path 5" class="cls-10" d="M22.5.5h170v84H22.5Z" transform="translate(826 158.5)"/>
    <text id="threads" class="cls-6" transform="translate(1002 188)"><tspan x="-69.88" y="0">threads</tspan></text>
    <text id="_12_16" data-name="12/16" class="cls-13" transform="translate(934 227)"><tspan x="-34.622" y="0">12/16</tspan></text>
    <path id="ic_remove_circle_24px" class="cls-4" d="M10,2a8,8,0,1,0,8,8A8,8,0,0,0,10,2Zm4,8.8H6V9.2h8Z" transform="translate(984 208)"/>
    <path id="ic_add_circle_24px" class="cls-4" d="M10,2a8,8,0,1,0,8,8A8,8,0,0,0,10,2Zm4,8.8H10.8V14H9.2V10.8H6V9.2H9.2V6h1.6V9.2H14Z" transform="translate(864 208)"/>
  </g>
</svg>
