<svg xmlns="http://www.w3.org/2000/svg" xmlns:xlink="http://www.w3.org/1999/xlink" viewBox="-4718 0 1050 1800">
  <defs>
    <style>
      .cls-1 {
        clip-path: url(#clip-Module_swatches);
      }

      .cls-2 {
        fill: #0d0d0d;
      }

      .cls-14, .cls-20, .cls-3, .cls-5, .cls-6, .cls-9 {
        fill: #fff;
      }

      .cls-3 {
        font-size: 38px;
      }

      .cls-14, .cls-3, .cls-5, .cls-6, .cls-9 {
        font-family: NotoSans-Bold, Noto Sans;
        font-weight: 700;
      }

      .cls-4 {
        fill: #009bbf;
      }

      .cls-5 {
        font-size: 34px;
      }

      .cls-6 {
        font-size: 36px;
      }

      .cls-7 {
        fill: #005bd3;
      }

      .cls-8 {
        fill: #2d29aa;
      }

      .cls-9 {
        font-size: 39px;
      }

      .cls-10 {
        fill: #6c21ae;
      }

      .cls-11 {
        fill: #972db6;
      }

      .cls-12 {
        fill: #c52588;
      }

      .cls-13 {
        fill: #d12834;
      }

      .cls-14 {
        font-size: 35px;
      }

      .cls-15 {
        fill: #d36818;
      }

      .cls-16 {
        fill: #d3a80e;
      }

      .cls-17 {
        fill: #9ec500;
      }

      .cls-18 {
        fill: #42b834;
      }

      .cls-19 {
        fill: #009d5e;
      }

      .cls-21 {
        filter: url(#_009D5E);
      }

      .cls-22 {
        filter: url(#_42B834);
      }

      .cls-23 {
        filter: url(#_9EC500);
      }

      .cls-24 {
        filter: url(#_D3A80E);
      }

      .cls-25 {
        filter: url(#_D36818);
      }

      .cls-26 {
        filter: url(#_D12834);
      }

      .cls-27 {
        filter: url(#_C52588);
      }

      .cls-28 {
        filter: url(#_972DB6);
      }

      .cls-29 {
        filter: url(#_6C21AE);
      }

      .cls-30 {
        filter: url(#_2D29AA);
      }

      .cls-31 {
        filter: url(#_005BD3);
      }

      .cls-32 {
        filter: url(#_009BBF);
      }
    </style>
    <filter id="_009BBF" x="-3971" y="50" width="150" height="52" filterUnits="userSpaceOnUse">
      <feOffset dy="2" input="SourceAlpha"/>
      <feGaussianBlur stdDeviation="1" result="blur"/>
      <feFlood flood-opacity="0.161"/>
      <feComposite operator="in" in2="blur"/>
      <feComposite in="SourceGraphic"/>
    </filter>
    <filter id="_005BD3" x="-3974" y="200" width="162" height="55" filterUnits="userSpaceOnUse">
      <feOffset dy="2" input="SourceAlpha"/>
      <feGaussianBlur stdDeviation="1" result="blur-2"/>
      <feFlood flood-opacity="0.161"/>
      <feComposite operator="in" in2="blur-2"/>
      <feComposite in="SourceGraphic"/>
    </filter>
    <filter id="_2D29AA" x="-3977" y="347" width="166" height="55" filterUnits="userSpaceOnUse">
      <feOffset dy="2" input="SourceAlpha"/>
      <feGaussianBlur stdDeviation="1" result="blur-3"/>
      <feFlood flood-opacity="0.161"/>
      <feComposite operator="in" in2="blur-3"/>
      <feComposite in="SourceGraphic"/>
    </filter>
    <filter id="_6C21AE" x="-3972" y="500" width="158" height="55" filterUnits="userSpaceOnUse">
      <feOffset dy="2" input="SourceAlpha"/>
      <feGaussianBlur stdDeviation="1" result="blur-4"/>
      <feFlood flood-opacity="0.161"/>
      <feComposite operator="in" in2="blur-4"/>
      <feComposite in="SourceGraphic"/>
    </filter>
    <filter id="_972DB6" x="-3972" y="650" width="152" height="52" filterUnits="userSpaceOnUse">
      <feOffset dy="2" input="SourceAlpha"/>
      <feGaussianBlur stdDeviation="1" result="blur-5"/>
      <feFlood flood-opacity="0.161"/>
      <feComposite operator="in" in2="blur-5"/>
      <feComposite in="SourceGraphic"/>
    </filter>
    <filter id="_C52588" x="-3970" y="800" width="154" height="55" filterUnits="userSpaceOnUse">
      <feOffset dy="2" input="SourceAlpha"/>
      <feGaussianBlur stdDeviation="1" result="blur-6"/>
      <feFlood flood-opacity="0.161"/>
      <feComposite operator="in" in2="blur-6"/>
      <feComposite in="SourceGraphic"/>
    </filter>
    <filter id="_D12834" x="-3972" y="947" width="152" height="53" filterUnits="userSpaceOnUse">
      <feOffset dy="2" input="SourceAlpha"/>
      <feGaussianBlur stdDeviation="1" result="blur-7"/>
      <feFlood flood-opacity="0.161"/>
      <feComposite operator="in" in2="blur-7"/>
      <feComposite in="SourceGraphic"/>
    </filter>
    <filter id="_D36818" x="-3971" y="1100" width="156" height="55" filterUnits="userSpaceOnUse">
      <feOffset dy="2" input="SourceAlpha"/>
      <feGaussianBlur stdDeviation="1" result="blur-8"/>
      <feFlood flood-opacity="0.161"/>
      <feComposite operator="in" in2="blur-8"/>
      <feComposite in="SourceGraphic"/>
    </filter>
    <filter id="_D3A80E" x="-3973" y="1250" width="158" height="53" filterUnits="userSpaceOnUse">
      <feOffset dy="2" input="SourceAlpha"/>
      <feGaussianBlur stdDeviation="1" result="blur-9"/>
      <feFlood flood-opacity="0.161"/>
      <feComposite operator="in" in2="blur-9"/>
      <feComposite in="SourceGraphic"/>
    </filter>
    <filter id="_9EC500" x="-3970" y="1397" width="154" height="55" filterUnits="userSpaceOnUse">
      <feOffset dy="2" input="SourceAlpha"/>
      <feGaussianBlur stdDeviation="1" result="blur-10"/>
      <feFlood flood-opacity="0.161"/>
      <feComposite operator="in" in2="blur-10"/>
      <feComposite in="SourceGraphic"/>
    </filter>
    <filter id="_42B834" x="-3970" y="1550" width="154" height="55" filterUnits="userSpaceOnUse">
      <feOffset dy="2" input="SourceAlpha"/>
      <feGaussianBlur stdDeviation="1" result="blur-11"/>
      <feFlood flood-opacity="0.161"/>
      <feComposite operator="in" in2="blur-11"/>
      <feComposite in="SourceGraphic"/>
    </filter>
    <filter id="_009D5E" x="-3972" y="1697" width="152" height="53" filterUnits="userSpaceOnUse">
      <feOffset dy="2" input="SourceAlpha"/>
      <feGaussianBlur stdDeviation="1" result="blur-12"/>
      <feFlood flood-opacity="0.161"/>
      <feComposite operator="in" in2="blur-12"/>
      <feComposite in="SourceGraphic"/>
    </filter>
    <clipPath id="clip-Module_swatches">
      <rect x="-4718" width="1050" height="1800"/>
    </clipPath>
  </defs>
  <g id="Module_swatches" data-name="Module swatches" class="cls-1">
    <rect class="cls-20" x="-4718" width="1050" height="1800"/>
    <g id="Group_601" data-name="Group 601" transform="translate(-4718)">
      <rect id="Rectangle_268" data-name="Rectangle 268" class="cls-2" width="600" height="150"/>
      <text id="Administration" class="cls-3" transform="translate(297 89)"><tspan x="-143.78" y="0">Administration</tspan></text>
    </g>
    <path id="Path_242" data-name="Path 242" class="cls-4" d="M450,256.3H0v150H450v-150" transform="translate(-4118 -256.3)"/>
    <g class="cls-32" transform="matrix(1, 0, 0, 1, 0, 0)">
      <text id="_009BBF-2" data-name="#009BBF" class="cls-5" transform="translate(-3896 87)"><tspan x="-71.578" y="0">#009BBF</tspan></text>
    </g>
    <g id="Group_602" data-name="Group 602" transform="translate(-4718 150)">
      <rect id="Rectangle_268-2" data-name="Rectangle 268" class="cls-2" width="600" height="150"/>
      <text id="Custom_Reactions" data-name="Custom Reactions" class="cls-6" transform="translate(287 86)"><tspan x="-161.429" y="0">Custom Reactions</tspan></text>
    </g>
    <path id="Path_243" data-name="Path 243" class="cls-7" d="M450,298.5H0v150H450v-150" transform="translate(-4118 -148.5)"/>
    <g class="cls-31" transform="matrix(1, 0, 0, 1, 0, 0)">
      <text id="_005BD3-2" data-name="#005BD3" class="cls-6" transform="translate(-3893 239)"><tspan x="-77.054" y="0">#005BD3</tspan></text>
    </g>
    <g id="Group_603" data-name="Group 603" transform="translate(-4718 300)">
      <rect id="Rectangle_268-3" data-name="Rectangle 268" class="cls-2" width="600" height="150"/>
      <text id="Gambling" class="cls-6" transform="translate(294 86)"><tspan x="-87.179" y="0">Gambling</tspan></text>
    </g>
    <path id="Path_244" data-name="Path 244" class="cls-8" d="M450,341.3H0v150H450v-150" transform="translate(-4118 -41.3)"/>
    <g class="cls-30" transform="matrix(1, 0, 0, 1, 0, 0)">
      <text id="_2D29AA-2" data-name="#2D29AA" class="cls-6" transform="translate(-3894 386)"><tspan x="-79.884" y="0">#2D29AA</tspan></text>
    </g>
    <g id="Group_604" data-name="Group 604" transform="translate(-4718 450)">
      <rect id="Rectangle_268-4" data-name="Rectangle 268" class="cls-2" width="600" height="150"/>
      <text id="Games" class="cls-9" transform="translate(300 90)"><tspan x="-66.26" y="0">Games</tspan></text>
    </g>
    <path id="Path_245" data-name="Path 245" class="cls-10" d="M450,384.2H0v150H450v-150" transform="translate(-4118 65.8)"/>
    <g class="cls-29" transform="matrix(1, 0, 0, 1, 0, 0)">
      <text id="_6C21AE-2" data-name="#6C21AE" class="cls-6" transform="translate(-3893 539)"><tspan x="-75.691" y="0">#6C21AE</tspan></text>
    </g>
    <g id="Group_605" data-name="Group 605" transform="translate(-4718 600)">
      <rect id="Rectangle_268-5" data-name="Rectangle 268" class="cls-2" width="600" height="150"/>
      <text id="Help" class="cls-9" transform="translate(300 90)"><tspan x="-44.732" y="0">Help</tspan></text>
    </g>
    <path id="Path_246" data-name="Path 246" class="cls-11" d="M450,426.4H0v150H450v-150" transform="translate(-4118 173.6)"/>
    <g class="cls-28" transform="matrix(1, 0, 0, 1, 0, 0)">
      <text id="_972DB6-2" data-name="#972DB6" class="cls-5" transform="translate(-3896 687)"><tspan x="-72.773" y="0">#972DB6</tspan></text>
    </g>
    <g id="Group_606" data-name="Group 606" transform="translate(-4718 750)">
      <rect id="Rectangle_268-6" data-name="Rectangle 268" class="cls-2" width="600" height="150"/>
      <text id="Music" class="cls-9" transform="translate(300 90)"><tspan x="-56.872" y="0">Music</tspan></text>
    </g>
    <path id="Path_247" data-name="Path 247" class="cls-12" d="M450,469.2H0v150H450v-150" transform="translate(-4118 280.8)"/>
    <g class="cls-27" transform="matrix(1, 0, 0, 1, 0, 0)">
      <text id="_C52588-2" data-name="#C52588" class="cls-6" transform="translate(-3893 839)"><tspan x="-73.02" y="0">#C52588</tspan></text>
    </g>
    <g id="Group_607" data-name="Group 607" transform="translate(-4718 900)">
      <rect id="Rectangle_268-7" data-name="Rectangle 268" class="cls-2" width="600" height="150"/>
      <text id="NSFW" class="cls-3" transform="translate(298 89)"><tspan x="-54.708" y="0">NSFW</tspan></text>
    </g>
    <path id="Path_236" data-name="Path 236" class="cls-13" d="M450,0H0V150H450V0" transform="translate(-4118 900)"/>
    <g class="cls-26" transform="matrix(1, 0, 0, 1, 0, 0)">
      <text id="_D12834-2" data-name="#D12834" class="cls-14" transform="translate(-3896 985)"><tspan x="-72.794" y="0">#D12834</tspan></text>
    </g>
    <g id="Group_608" data-name="Group 608" transform="translate(-4718 1050)">
      <rect id="Rectangle_268-8" data-name="Rectangle 268" class="cls-2" width="600" height="150"/>
      <text id="Permissions" class="cls-3" transform="translate(298 89)"><tspan x="-114.622" y="0">Permissions</tspan></text>
    </g>
    <path id="Path_237" data-name="Path 237" class="cls-15" d="M450,42.8H0v150H450V42.8" transform="translate(-4118 1007.2)"/>
    <g class="cls-25" transform="matrix(1, 0, 0, 1, 0, 0)">
      <text id="_D36818-2" data-name="#D36818" class="cls-6" transform="translate(-3893 1139)"><tspan x="-74.874" y="0">#D36818</tspan></text>
    </g>
    <g id="Group_609" data-name="Group 609" transform="translate(-4718 1200)">
      <rect id="Rectangle_268-9" data-name="Rectangle 268" class="cls-2" width="600" height="150"/>
      <text id="Pokemon" class="cls-3" transform="translate(296 89)"><tspan x="-89.424" y="0">Pokemon</tspan></text>
    </g>
    <path id="Path_238" data-name="Path 238" class="cls-16" d="M450,85H0V235H450V85" transform="translate(-4118 1115)"/>
    <g class="cls-24" transform="matrix(1, 0, 0, 1, 0, 0)">
      <text id="_D3A80E-2" data-name="#D3A80E" class="cls-14" transform="translate(-3894 1288)"><tspan x="-75.392" y="0">#D3A80E</tspan></text>
    </g>
    <g id="Group_610" data-name="Group 610" transform="translate(-4718 1350)">
      <rect id="Rectangle_268-10" data-name="Rectangle 268" class="cls-2" width="600" height="150"/>
      <text id="Searches" class="cls-9" transform="translate(300 90)"><tspan x="-86.76" y="0">Searches</tspan></text>
    </g>
    <path id="Path_239" data-name="Path 239" class="cls-17" d="M450,127.8H0v150H450v-150" transform="translate(-4118 1222.2)"/>
    <g class="cls-23" transform="matrix(1, 0, 0, 1, 0, 0)">
      <text id="_9EC500-2" data-name="#9EC500" class="cls-6" transform="translate(-3893 1436)"><tspan x="-73.187" y="0">#9EC500</tspan></text>
    </g>
    <g id="Group_611" data-name="Group 611" transform="translate(-4718 1500)">
      <rect id="Rectangle_268-11" data-name="Rectangle 268" class="cls-2" width="600" height="150"/>
      <text id="Utilities" class="cls-3" transform="translate(297 89)"><tspan x="-74.72" y="0">Utilities</tspan></text>
    </g>
    <path id="Path_240" data-name="Path 240" class="cls-18" d="M450,170.7H0v150H450v-150" transform="translate(-4118 1329.3)"/>
    <g class="cls-22" transform="matrix(1, 0, 0, 1, 0, 0)">
      <text id="_42B834-2" data-name="#42B834" class="cls-6" transform="translate(-3893 1589)"><tspan x="-73.644" y="0">#42B834</tspan></text>
    </g>
    <g id="Group_612" data-name="Group 612" transform="translate(-4718 1650)">
      <rect id="Rectangle_268-12" data-name="Rectangle 268" class="cls-2" width="600" height="150"/>
      <text id="XP" class="cls-6" transform="translate(299 86)"><tspan x="-23.309" y="0">XP</tspan></text>
    </g>
    <path id="Path_241" data-name="Path 241" class="cls-19" d="M450,213.5H0v150H450v-150" transform="translate(-4118 1436.5)"/>
    <g class="cls-21" transform="matrix(1, 0, 0, 1, 0, 0)">
      <text id="_009D5E-2" data-name="#009D5E" class="cls-14" transform="translate(-3896 1735)"><tspan x="-72.957" y="0">#009D5E</tspan></text>
    </g>
  </g>
</svg>
