<svg xmlns="http://www.w3.org/2000/svg" xmlns:xlink="http://www.w3.org/1999/xlink" viewBox="550 0 480 320">
  <defs>
    <style>
      .cls-1, .cls-11, .cls-13, .cls-16, .cls-4, .cls-6, .cls-8 {
        fill: #fff;
      }

      .cls-1 {
        stroke: #95989a;
      }

      .cls-2 {
        clip-path: url(#clip-running);
      }

      .cls-3, .cls-5 {
        fill: #8d0039;
      }

      .cls-5, .cls-6 {
        font-size: 20px;
        font-family: WhitneyHTF-SemiBoldSC, Whitney HTF SC;
      }

      .cls-16, .cls-5, .cls-6, .cls-8 {
        font-weight: 600;
      }

      .cls-10, .cls-7 {
        fill: #b40049;
      }

      .cls-8 {
        font-size: 16px;
      }

      .cls-16, .cls-8 {
        font-family: WhitneyHTF-SemiBold, Whitney HTF;
      }

      .cls-15, .cls-9 {
        fill: #ff0067;
      }

      .cls-9 {
        fill-rule: evenodd;
      }

      .cls-10, .cls-9 {
        opacity: 0.5;
      }

      .cls-11 {
        font-size: 34px;
      }

      .cls-11, .cls-13 {
        font-family: WhitneyHTF-Bold, Whitney HTF;
        font-weight: 700;
      }

      .cls-12 {
        clip-path: url(#clip-path);
      }

      .cls-13 {
        font-size: 28px;
      }

      .cls-14 {
        fill: rgba(255,255,255,0.3);
      }

      .cls-16 {
        font-size: 10px;
        opacity: 0.3;
      }

      .cls-17 {
        filter: url(#switch_button);
      }
    </style>
    <filter id="switch_button" x="983" y="277" width="26" height="26" filterUnits="userSpaceOnUse">
      <feOffset dy="2" input="SourceAlpha"/>
      <feGaussianBlur stdDeviation="1" result="blur"/>
      <feFlood flood-opacity="0.239"/>
      <feComposite operator="in" in2="blur"/>
      <feComposite in="SourceGraphic"/>
    </filter>
    <clipPath id="clip-path">
      <rect id="Rectangle_5" data-name="Rectangle 5" class="cls-1" width="26" height="26" transform="translate(701 -88)"/>
    </clipPath>
    <clipPath id="clip-running">
      <rect x="550" width="480" height="320"/>
    </clipPath>
  </defs>
  <g id="running" class="cls-2">
    <rect class="cls-4" x="550" width="480" height="320"/>
    <g id="Group_27" data-name="Group 27" transform="translate(550)">
      <rect id="Rectangle_1" data-name="Rectangle 1" class="cls-3" width="480" height="320"/>
      <g id="Group_6" data-name="Group 6">
        <rect id="Rectangle_2" data-name="Rectangle 2" class="cls-4" width="240" height="48" transform="translate(240)"/>
        <text id="logs" class="cls-5" transform="translate(360 32)"><tspan x="-19.21" y="0">logs</tspan></text>
      </g>
      <g id="Group_5" data-name="Group 5">
        <rect id="Rectangle_4" data-name="Rectangle 4" class="cls-3" width="240" height="48"/>
        <text id="miner" class="cls-6" transform="translate(120 32)"><tspan x="-24.88" y="0">miner</tspan></text>
      </g>
      <g id="Group_8" data-name="Group 8">
        <rect id="Rectangle_3" data-name="Rectangle 3" class="cls-7" width="480" height="64" transform="translate(0 256)"/>
        <g id="Group_7" data-name="Group 7">
          <text id="Nadeko_miner_is_enabled." data-name="Nadeko miner is enabled." class="cls-8" transform="translate(64 294)"><tspan x="0" y="0">Nadeko miner is enabled.</tspan></text>
          <g id="Group_4" data-name="Group 4">
            <path id="switch_path" class="cls-9" d="M37,10a6.957,6.957,0,0,1-7,7H10a6.957,6.957,0,0,1-7-7H3a6.957,6.957,0,0,1,7-7H30a6.957,6.957,0,0,1,7,7Z" transform="translate(416 278)"/>
            <g class="cls-17" transform="matrix(1, 0, 0, 1, -550, 0)">
              <path id="switch_button-2" data-name="switch_button" class="cls-4" d="M10,0A10,10,0,1,1,0,10,10,10,0,0,1,10,0Z" transform="translate(986 278)"/>
            </g>
          </g>
          <path id="ic_info_24px" class="cls-4" d="M12,2A10,10,0,1,0,22,12,10,10,0,0,0,12,2Zm1,15H11V11h2Zm0-8H11V7h2Z" transform="translate(20 276)"/>
        </g>
      </g>
      <path id="Path_1" data-name="Path 1" class="cls-10" d="M.5.5h274v84H.5Z" transform="translate(12 60.5)"/>
      <path id="Path_3" data-name="Path 3" class="cls-10" d="M22.5.5h170v84H22.5Z" transform="translate(276 60.5)"/>
      <g id="Group_16" data-name="Group 16" transform="translate(-20 -12)">
        <text id="flowers_earned" data-name="flowers earned" class="cls-6" transform="translate(48 99)"><tspan x="0" y="0">flowers earned</tspan></text>
        <g id="Group_15" data-name="Group 15">
          <text id="_94.83" data-name="94.83" class="cls-11" transform="translate(86 143)"><tspan x="0" y="0">94.83</tspan></text>
          <g id="Mask_Group_1" data-name="Mask Group 1" class="cls-12" transform="translate(-653 206)">
            <path id="Subtraction_1" data-name="Subtraction 1" class="cls-4" d="M14.666,20.681c-.882,0-1.693-.576-2.631-1.867A9.041,9.041,0,0,1,10.7,15.885a9.051,9.051,0,0,1-1.335,2.929c-.938,1.291-1.749,1.867-2.631,1.867a3.446,3.446,0,0,1-1.82-.661A1.552,1.552,0,0,0,5.2,18.941a.47.47,0,0,0-.16-.317.391.391,0,0,0-.234-.064,1.478,1.478,0,0,0-1.056.616c-1.652-1.361-1.712-2.566-.23-4.606a9.046,9.046,0,0,1,2.373-2.175c-.184.009-.369.014-.554.014A8.718,8.718,0,0,1,2.7,12.03C.3,11.251-.362,10.24.175,8.169a1.587,1.587,0,0,0,.483.074c.432,0,.812-.166.884-.385.1-.3-.334-.863-.923-1.055.56-1.422,1.265-2,2.433-2a6.221,6.221,0,0,1,1.878.361,9.047,9.047,0,0,1,2.8,1.585,9.042,9.042,0,0,1-.642-3.155C7.089,1.069,7.845.13,9.981,0a1.613,1.613,0,0,0,.242.835A.665.665,0,0,0,10.7,1.2c.314,0,.718-.584.718-1.2,2.136.13,2.893,1.069,2.893,3.591a9.052,9.052,0,0,1-.642,3.155,9.06,9.06,0,0,1,2.8-1.586,6.228,6.228,0,0,1,1.877-.36c1.168,0,1.873.58,2.433,2a1.553,1.553,0,0,0-.866.7.469.469,0,0,0-.057.35c.071.22.451.385.883.385a1.594,1.594,0,0,0,.485-.074c.536,2.072-.125,3.083-2.522,3.861a8.718,8.718,0,0,1-2.644.378q-.278,0-.554-.014a9.046,9.046,0,0,1,2.373,2.175c1.482,2.04,1.422,3.246-.229,4.606a1.479,1.479,0,0,0-1.056-.616.389.389,0,0,0-.233.064c-.254.184-.238.895.127,1.4A3.449,3.449,0,0,1,14.666,20.681ZM10.7,8.426a2.407,2.407,0,1,0,2.407,2.407A2.41,2.41,0,0,0,10.7,8.426Z" transform="translate(703.059 -85.581)"/>
          </g>
        </g>
      </g>
      <g id="Group_18" data-name="Group 18" transform="translate(23 -12)">
        <text id="speed" class="cls-6" transform="translate(429 99)"><tspan x="-46.82" y="0">speed</tspan></text>
        <g id="Group_17" data-name="Group 17">
          <text id="_284" data-name="284" class="cls-11" transform="translate(394 143)"><tspan x="-59.534" y="0">284</tspan></text>
          <path id="ic_memory_24px" class="cls-4" d="M18.667,10.833H10.833v7.833h7.833Zm-2.611,5.222H13.444V13.444h2.611ZM26.5,13.444V10.833H23.889V8.222a2.619,2.619,0,0,0-2.611-2.611H18.667V3H16.056V5.611H13.444V3H10.833V5.611H8.222A2.619,2.619,0,0,0,5.611,8.222v2.611H3v2.611H5.611v2.611H3v2.611H5.611v2.611a2.619,2.619,0,0,0,2.611,2.611h2.611V26.5h2.611V23.889h2.611V26.5h2.611V23.889h2.611a2.619,2.619,0,0,0,2.611-2.611V18.667H26.5V16.056H23.889V13.444Zm-5.222,7.833H8.222V8.222H21.278Z" transform="translate(402.5 116.25)"/>
        </g>
      </g>
      <path id="Path_4" data-name="Path 4" class="cls-10" d="M.5.5h274v84H.5Z" transform="translate(12 158.5)"/>
      <g id="Group_25" data-name="Group 25" transform="translate(4)">
        <text id="effort" class="cls-6" transform="translate(24 188)"><tspan x="0" y="0">effort</tspan></text>
        <g id="Group_24" data-name="Group 24">
          <text id="_60_" data-name="60%" class="cls-13" transform="translate(205 196)"><tspan x="0" y="0">60%</tspan></text>
          <g id="Group_23" data-name="Group 23">
            <g id="Group_22" data-name="Group 22">
              <g id="Group_21" data-name="Group 21" transform="translate(-24 10)">
                <rect id="pressed_slider_bar" class="cls-14" width="240" height="3.999" transform="translate(48 215)"/>
                <rect id="pressed_slider_active" class="cls-15" width="144" height="3.999" transform="translate(48 215.001)"/>
              </g>
              <circle id="Ellipse_1" data-name="Ellipse 1" class="cls-15" cx="6" cy="6" r="6" transform="translate(159 221)"/>
            </g>
            <text id="_0" data-name="0" class="cls-16" transform="translate(24 217)"><tspan x="0" y="0">0</tspan></text>
            <text id="_100" data-name="100" class="cls-16" transform="translate(264 217)"><tspan x="-16.36" y="0">100</tspan></text>
          </g>
        </g>
      </g>
      <path id="Path_5" data-name="Path 5" class="cls-10" d="M22.5.5h170v84H22.5Z" transform="translate(276 158.5)"/>
      <g id="Group_26" data-name="Group 26" transform="translate(-4)">
        <text id="threads" class="cls-6" transform="translate(456 188)"><tspan x="-69.88" y="0">threads</tspan></text>
        <g id="Group_11" data-name="Group 11" transform="translate(27)">
          <text id="_12_16" data-name="12/16" class="cls-13" transform="translate(367 227)"><tspan x="-34.622" y="0">12/16</tspan></text>
          <path id="ic_remove_circle_24px" class="cls-4" d="M10,2a8,8,0,1,0,8,8A8,8,0,0,0,10,2Zm4,8.8H6V9.2h8Z" transform="translate(411 208)"/>
          <path id="ic_add_circle_24px" class="cls-4" d="M10,2a8,8,0,1,0,8,8A8,8,0,0,0,10,2Zm4,8.8H10.8V14H9.2V10.8H6V9.2H9.2V6h1.6V9.2H14Z" transform="translate(301 208)"/>
        </g>
      </g>
    </g>
  </g>
</svg>
