<svg xmlns="http://www.w3.org/2000/svg" xmlns:xlink="http://www.w3.org/1999/xlink" viewBox="3376 0 510 1388">
  <defs>
    <style>
      .cls-1, .cls-7 {
        fill: #fff;
      }

      .cls-2 {
        clip-path: url(#clip-sidebar);
      }

      .cls-3 {
        fill: #e2005b;
      }

      .cls-4 {
        fill: #c50050;
      }

      .cls-5 {
        fill: #8d0039;
        opacity: 0;
      }

      .cls-6 {
        clip-path: url(#clip-path);
      }

      .cls-7 {
        font-size: 32px;
        font-family: UniSansHeavyCAPS, Uni Sans CAPS;
      }

      .cls-8 {
        clip-path: url(#clip-path-3);
      }
    </style>
    <clipPath id="clip-path">
      <rect id="Rectangle_72" data-name="Rectangle 72" width="60" height="60"/>
    </clipPath>
    <clipPath id="clip-path-3">
      <rect id="Rectangle_75" data-name="Rectangle 75" class="cls-1" width="60" height="60" transform="translate(30 220)"/>
    </clipPath>
    <clipPath id="clip-sidebar">
      <rect x="3376" width="510" height="1388"/>
    </clipPath>
  </defs>
  <g id="sidebar" class="cls-2">
    <rect class="cls-1" x="3376" width="510" height="1388"/>
    <rect id="Rectangle_62" data-name="Rectangle 62" class="cls-3" width="120" height="1388" transform="translate(3376)"/>
    <rect id="Rectangle_63" data-name="Rectangle 63" class="cls-4" width="390" height="1388" transform="translate(3496)"/>
    <g id="Group_59" data-name="Group 59" transform="translate(3376 -100)">
      <g id="Group_34" data-name="Group 34">
        <path id="Path_56" data-name="Path 56" class="cls-5" d="M0,0H510V100H0Z" transform="translate(0 100)"/>
      </g>
      <g id="Group_33" data-name="Group 33">
        <g id="Group_23" data-name="Group 23" transform="translate(30 120)">
          <g id="Group_22" data-name="Group 22" class="cls-6">
            <path id="Path_49" data-name="Path 49" class="cls-1" d="M10.5,38c0-5,10-7.75,15-7.75S40.5,33,40.5,38v2.5h-30M33,18a7.366,7.366,0,0,1-7.5,7.5A7.366,7.366,0,0,1,18,18a7.366,7.366,0,0,1,7.5-7.5A7.366,7.366,0,0,1,33,18M3,8V43a5.015,5.015,0,0,0,5,5H43a5.015,5.015,0,0,0,5-5V8a5.015,5.015,0,0,0-5-5H8A5.015,5.015,0,0,0,3,8Z" transform="translate(4.5 4.5)"/>
          </g>
        </g>
        <text id="profile" class="cls-7" transform="translate(160 162)"><tspan x="0" y="0">profile</tspan></text>
        <g id="Group_29" data-name="Group 29" transform="translate(430 120)">
          <g id="Group_28" data-name="Group 28" class="cls-6">
            <path id="Path_53" data-name="Path 53" class="cls-1" d="M9.5,8.6,21,20.1,32.5,8.6,36,12.1l-15,15L6,12.1Z" transform="translate(9 12.9)"/>
          </g>
        </g>
      </g>
    </g>
    <g id="Group_36" data-name="Group 36" transform="translate(3376 -100)">
      <path id="Path_57" data-name="Path 57" class="cls-5" d="M0,0H510V100H0Z" transform="translate(0 200)"/>
      <g id="Group_35" data-name="Group 35">
        <g id="Mask_Group_5" data-name="Mask Group 5" class="cls-8">
          <path id="Path_50" data-name="Path 50" class="cls-1" d="M20.05,22.75c-5.75-1.5-7.5-3-7.5-5.25,0-2.75,2.5-4.5,6.75-4.5,4.5,0,6,2,6.25,5.25h5.5a9.989,9.989,0,0,0-8-9.5V3h-7.5V8.5c-4.75,1-8.75,4-8.75,9,0,5.75,4.75,8.75,11.75,10.25,6.25,1.5,7.5,3.75,7.5,6,0,1.75-1.25,4.5-6.75,4.5-5.25,0-7.25-2.25-7.5-5.25H6.3c.25,5.5,4.5,8.5,9.25,9.5V48h7.5V42.75c4.75-1,8.75-3.75,8.75-9C31.8,26.75,25.8,24.25,20.05,22.75Z" transform="translate(39.45 224.5)"/>
        </g>
        <text id="donate" class="cls-7" transform="translate(160 262)"><tspan x="0" y="0">donate</tspan></text>
        <g id="Group_30" data-name="Group 30" transform="translate(430 220)">
          <g id="Group_28-2" data-name="Group 28" class="cls-6">
            <path id="Path_53-2" data-name="Path 53" class="cls-1" d="M9.5,8.6,21,20.1,32.5,8.6,36,12.1l-15,15L6,12.1Z" transform="translate(9 12.9)"/>
          </g>
        </g>
      </g>
    </g>
    <g id="Group_38" data-name="Group 38" transform="translate(3376 -100)">
      <path id="Path_54" data-name="Path 54" class="cls-5" d="M0,0H510V100H0Z" transform="translate(0 300)"/>
      <g id="Group_37" data-name="Group 37">
        <g id="Group_25" data-name="Group 25" transform="translate(30 320)">
          <g id="Group_24" data-name="Group 24" class="cls-6">
            <path id="Path_51" data-name="Path 51" class="cls-1" d="M23,40.5h5v-5H23v5m2.5-30a10.029,10.029,0,0,0-10,10h5a5,5,0,0,1,10,0c0,5-7.5,4.5-7.5,12.5h5c0-5.75,7.5-6.25,7.5-12.5a10.029,10.029,0,0,0-10-10M8,3H43a5.015,5.015,0,0,1,5,5V43a5.015,5.015,0,0,1-5,5H8a5.015,5.015,0,0,1-5-5V8A5.015,5.015,0,0,1,8,3Z" transform="translate(4.5 4.5)"/>
          </g>
        </g>
        <text id="support" class="cls-7" transform="translate(160 362)"><tspan x="0" y="0">support</tspan></text>
        <g id="Group_31" data-name="Group 31" transform="translate(430 320)">
          <g id="Group_28-3" data-name="Group 28" class="cls-6">
            <path id="Path_53-3" data-name="Path 53" class="cls-1" d="M9.5,8.6,21,20.1,32.5,8.6,36,12.1l-15,15L6,12.1Z" transform="translate(9 12.9)"/>
          </g>
        </g>
      </g>
    </g>
    <g id="Group_61" data-name="Group 61" transform="translate(3376)">
      <path id="Path_55" data-name="Path 55" class="cls-5" d="M0,0H510V100H0Z" transform="translate(0 300)"/>
      <g id="Group_39" data-name="Group 39" transform="translate(0 -100)">
        <g id="Group_27" data-name="Group 27" transform="translate(30 420)">
          <g id="Group_26" data-name="Group 26" class="cls-6">
            <path id="Path_52" data-name="Path 52" class="cls-1" d="M40.5,37.25a7.433,7.433,0,0,0-5,2L17.75,28.75A4.254,4.254,0,0,0,18,27a4.254,4.254,0,0,0-.25-1.75L35.5,15a6.98,6.98,0,0,0,5,2A7.366,7.366,0,0,0,48,9.5a7.5,7.5,0,0,0-15,0,4.254,4.254,0,0,0,.25,1.75L15.5,21.5a6.98,6.98,0,0,0-5-2A7.366,7.366,0,0,0,3,27a7.366,7.366,0,0,0,7.5,7.5,6.98,6.98,0,0,0,5-2L33.25,43A3.707,3.707,0,0,0,33,44.75a7.25,7.25,0,0,0,14.5,0A6.966,6.966,0,0,0,40.5,37.25Z" transform="translate(4.5 3)"/>
          </g>
        </g>
        <text id="social" class="cls-7" transform="translate(160 462)"><tspan x="0" y="0">social</tspan></text>
        <g id="Group_32" data-name="Group 32" transform="translate(430 420)">
          <g id="Group_28-4" data-name="Group 28" class="cls-6">
            <path id="Path_53-4" data-name="Path 53" class="cls-1" d="M9.5,8.6,21,20.1,32.5,8.6,36,12.1l-15,15L6,12.1Z" transform="translate(9 12.9)"/>
          </g>
        </g>
      </g>
    </g>
  </g>
</svg>
