<svg xmlns="http://www.w3.org/2000/svg" xmlns:xlink="http://www.w3.org/1999/xlink" viewBox="3956 0 510 1388">
  <defs>
    <style>
      .cls-1, .cls-11, .cls-7 {
        fill: #fff;
      }

      .cls-2 {
        clip-path: url(#clip-sidebar_1);
      }

      .cls-3 {
        fill: #e2005b;
      }

      .cls-4 {
        fill: #c50050;
      }

      .cls-5, .cls-9 {
        fill: #8d0039;
      }

      .cls-5 {
        opacity: 0;
      }

      .cls-6 {
        clip-path: url(#clip-path);
      }

      .cls-11, .cls-7 {
        font-size: 32px;
      }

      .cls-7 {
        font-family: UniSansHeavyCAPS, Uni Sans CAPS;
      }

      .cls-8 {
        clip-path: url(#clip-path-3);
      }

      .cls-9 {
        opacity: 0.5;
      }

      .cls-10 {
        fill: #101214;
      }

      .cls-11 {
        font-family: WhitneyHTF-SemiBold, Whitney HTF;
        font-weight: 600;
      }

      .cls-12 {
        fill: #24292e;
      }

      .cls-13 {
        fill: #1da1f3;
      }

      .cls-14 {
        fill: #1a90d9;
      }

      .cls-15 {
        fill: #6478bf;
      }

      .cls-16 {
        fill: #7289da;
      }
    </style>
    <clipPath id="clip-path">
      <rect id="Rectangle_72" data-name="Rectangle 72" width="60" height="60"/>
    </clipPath>
    <clipPath id="clip-path-3">
      <rect id="Rectangle_75" data-name="Rectangle 75" class="cls-1" width="60" height="60" transform="translate(30 220)"/>
    </clipPath>
    <clipPath id="clip-sidebar_1">
      <rect x="3956" width="510" height="1388"/>
    </clipPath>
  </defs>
  <g id="sidebar_1" data-name="sidebar – 1" class="cls-2">
    <rect class="cls-1" x="3956" width="510" height="1388"/>
    <rect id="Rectangle_62" data-name="Rectangle 62" class="cls-3" width="120" height="1388" transform="translate(3956)"/>
    <rect id="Rectangle_63" data-name="Rectangle 63" class="cls-4" width="390" height="1388" transform="translate(4076)"/>
    <g id="Group_59" data-name="Group 59" transform="translate(3956 -100)">
      <g id="Group_34" data-name="Group 34">
        <path id="Path_56" data-name="Path 56" class="cls-5" d="M0,0H510V100H0Z" transform="translate(0 100)"/>
      </g>
      <g id="Group_33" data-name="Group 33">
        <g id="Group_23" data-name="Group 23" transform="translate(30 120)">
          <g id="Group_22" data-name="Group 22" class="cls-6">
            <path id="Path_49" data-name="Path 49" class="cls-1" d="M10.5,38c0-5,10-7.75,15-7.75S40.5,33,40.5,38v2.5h-30M33,18a7.366,7.366,0,0,1-7.5,7.5A7.366,7.366,0,0,1,18,18a7.366,7.366,0,0,1,7.5-7.5A7.366,7.366,0,0,1,33,18M3,8V43a5.015,5.015,0,0,0,5,5H43a5.015,5.015,0,0,0,5-5V8a5.015,5.015,0,0,0-5-5H8A5.015,5.015,0,0,0,3,8Z" transform="translate(4.5 4.5)"/>
          </g>
        </g>
        <text id="profile" class="cls-7" transform="translate(160 162)"><tspan x="0" y="0">profile</tspan></text>
        <g id="Group_29" data-name="Group 29" transform="translate(430 120)">
          <g id="Group_28" data-name="Group 28" class="cls-6">
            <path id="Path_53" data-name="Path 53" class="cls-1" d="M9.5,8.6,21,20.1,32.5,8.6,36,12.1l-15,15L6,12.1Z" transform="translate(9 12.9)"/>
          </g>
        </g>
      </g>
    </g>
    <g id="Group_36" data-name="Group 36" transform="translate(3956 -100)">
      <path id="Path_57" data-name="Path 57" class="cls-5" d="M0,0H510V100H0Z" transform="translate(0 200)"/>
      <g id="Group_35" data-name="Group 35">
        <g id="Mask_Group_5" data-name="Mask Group 5" class="cls-8">
          <path id="Path_50" data-name="Path 50" class="cls-1" d="M20.05,22.75c-5.75-1.5-7.5-3-7.5-5.25,0-2.75,2.5-4.5,6.75-4.5,4.5,0,6,2,6.25,5.25h5.5a9.989,9.989,0,0,0-8-9.5V3h-7.5V8.5c-4.75,1-8.75,4-8.75,9,0,5.75,4.75,8.75,11.75,10.25,6.25,1.5,7.5,3.75,7.5,6,0,1.75-1.25,4.5-6.75,4.5-5.25,0-7.25-2.25-7.5-5.25H6.3c.25,5.5,4.5,8.5,9.25,9.5V48h7.5V42.75c4.75-1,8.75-3.75,8.75-9C31.8,26.75,25.8,24.25,20.05,22.75Z" transform="translate(39.45 224.5)"/>
        </g>
        <text id="donate" class="cls-7" transform="translate(160 262)"><tspan x="0" y="0">donate</tspan></text>
        <g id="Group_30" data-name="Group 30" transform="translate(430 220)">
          <g id="Group_28-2" data-name="Group 28" class="cls-6">
            <path id="Path_53-2" data-name="Path 53" class="cls-1" d="M9.5,8.6,21,20.1,32.5,8.6,36,12.1l-15,15L6,12.1Z" transform="translate(9 12.9)"/>
          </g>
        </g>
      </g>
    </g>
    <g id="Group_38" data-name="Group 38" transform="translate(3956 -100)">
      <path id="Path_54" data-name="Path 54" class="cls-5" d="M0,0H510V100H0Z" transform="translate(0 300)"/>
      <g id="Group_37" data-name="Group 37">
        <g id="Group_25" data-name="Group 25" transform="translate(30 320)">
          <g id="Group_24" data-name="Group 24" class="cls-6">
            <path id="Path_51" data-name="Path 51" class="cls-1" d="M23,40.5h5v-5H23v5m2.5-30a10.029,10.029,0,0,0-10,10h5a5,5,0,0,1,10,0c0,5-7.5,4.5-7.5,12.5h5c0-5.75,7.5-6.25,7.5-12.5a10.029,10.029,0,0,0-10-10M8,3H43a5.015,5.015,0,0,1,5,5V43a5.015,5.015,0,0,1-5,5H8a5.015,5.015,0,0,1-5-5V8A5.015,5.015,0,0,1,8,3Z" transform="translate(4.5 4.5)"/>
          </g>
        </g>
        <text id="support" class="cls-7" transform="translate(160 362)"><tspan x="0" y="0">support</tspan></text>
        <g id="Group_31" data-name="Group 31" transform="translate(430 320)">
          <g id="Group_28-3" data-name="Group 28" class="cls-6">
            <path id="Path_53-3" data-name="Path 53" class="cls-1" d="M9.5,8.6,21,20.1,32.5,8.6,36,12.1l-15,15L6,12.1Z" transform="translate(9 12.9)"/>
          </g>
        </g>
      </g>
    </g>
    <g id="Group_57" data-name="Group 57" transform="translate(3956 -100)">
      <g id="Group_40" data-name="Group 40">
        <path id="Path_55" data-name="Path 55" class="cls-9" d="M0,0H510V100H0Z" transform="translate(0 400)"/>
        <g id="Group_39" data-name="Group 39">
          <g id="Group_27" data-name="Group 27" transform="translate(30 420)">
            <g id="Group_26" data-name="Group 26" class="cls-6">
              <path id="Path_52" data-name="Path 52" class="cls-1" d="M40.5,37.25a7.433,7.433,0,0,0-5,2L17.75,28.75A4.254,4.254,0,0,0,18,27a4.254,4.254,0,0,0-.25-1.75L35.5,15a6.98,6.98,0,0,0,5,2A7.366,7.366,0,0,0,48,9.5a7.5,7.5,0,0,0-15,0,4.254,4.254,0,0,0,.25,1.75L15.5,21.5a6.98,6.98,0,0,0-5-2A7.366,7.366,0,0,0,3,27a7.366,7.366,0,0,0,7.5,7.5,6.98,6.98,0,0,0,5-2L33.25,43A3.707,3.707,0,0,0,33,44.75a7.25,7.25,0,0,0,14.5,0A6.966,6.966,0,0,0,40.5,37.25Z" transform="translate(4.5 3)"/>
            </g>
          </g>
          <text id="social" class="cls-7" transform="translate(160 462)"><tspan x="0" y="0">social</tspan></text>
          <g id="Group_32" data-name="Group 32" transform="translate(490 480) rotate(180)">
            <g id="Group_28-4" data-name="Group 28" class="cls-6">
              <path id="Path_53-4" data-name="Path 53" class="cls-1" d="M9.5,8.6,21,20.1,32.5,8.6,36,12.1l-15,15L6,12.1Z" transform="translate(9 12.9)"/>
            </g>
          </g>
        </g>
      </g>
      <g id="Group_56" data-name="Group 56">
        <g id="Group_51" data-name="Group 51" transform="translate(0 120)">
          <g id="Group_50" data-name="Group 50">
            <rect id="Rectangle_85" data-name="Rectangle 85" class="cls-10" width="390" height="120" transform="translate(120 620)"/>
            <text id="kwoth_nadekobot" data-name="kwoth/nadekobot" class="cls-11" transform="translate(160 692)"><tspan x="0" y="0">kwoth/nadekobot</tspan></text>
          </g>
          <g id="Group_49" data-name="Group 49">
            <rect id="Rectangle_84" data-name="Rectangle 84" class="cls-12" width="120" height="120" transform="translate(0 620)"/>
            <g id="Group_45" data-name="Group 45" transform="translate(30 650)">
              <g id="Group_44" data-name="Group 44" class="cls-6">
                <path id="Path_59" data-name="Path 59" class="cls-1" d="M27,2a25.038,25.038,0,0,0-8,48.75c1.25.25,1.75-.5,1.75-1.25V45.25c-7,1.5-8.5-3.25-8.5-3.25-1-3-2.75-3.75-2.75-3.75-2.25-1.5.25-1.5.25-1.5a5.248,5.248,0,0,1,3.75,2.5c2.25,4,6,2.75,7.25,2.25a6.552,6.552,0,0,1,1.5-3.25c-5.5-.75-11.5-2.75-11.5-12.25a10.158,10.158,0,0,1,2.5-6.75c.25-1-.75-3.5.75-6.75,0,0,2-.75,7,2.5a25.186,25.186,0,0,1,6.25-.75A25.186,25.186,0,0,1,33.5,15c4.75-3.25,7-2.5,7-2.5a9.385,9.385,0,0,1,.25,6.5,10.158,10.158,0,0,1,2.5,6.75c0,9.5-5.75,11.75-11.5,12.25,1,.75,1.75,2.25,1.75,4.75V49.5c0,.75.5,1.5,1.75,1.25A24.86,24.86,0,0,0,52.25,27,25.454,25.454,0,0,0,27,2Z" transform="translate(3 3)"/>
              </g>
            </g>
          </g>
        </g>
        <g id="Group_52" data-name="Group 52" transform="translate(0 120)">
          <g id="Group_46" data-name="Group 46">
            <rect id="Rectangle_81" data-name="Rectangle 81" class="cls-13" width="120" height="120" transform="translate(0 500)"/>
            <g id="Group_42" data-name="Group 42" transform="translate(30 530)">
              <g id="Group_41" data-name="Group 41" class="cls-6">
                <path id="Path_58" data-name="Path 58" class="cls-1" d="M53.85,9a25.681,25.681,0,0,1-6.25,1.75,10.366,10.366,0,0,0,4.75-6A31.875,31.875,0,0,1,45.6,7.5a10.4,10.4,0,0,0-8-3.5A10.67,10.67,0,0,0,26.85,14.75a8.5,8.5,0,0,0,.25,2.5A30.641,30.641,0,0,1,5.1,6a9.839,9.839,0,0,0-1.5,5.25,11.231,11.231,0,0,0,4.75,9A9.574,9.574,0,0,1,3.6,19h0a10.747,10.747,0,0,0,8.5,10.5,10.632,10.632,0,0,1-2.75.5,5.5,5.5,0,0,1-2-.25,10.816,10.816,0,0,0,10,7.5A20.734,20.734,0,0,1,4.1,41.75a8.5,8.5,0,0,1-2.5-.25,27.815,27.815,0,0,0,16.25,5c19.75,0,30.5-16.25,30.5-30.5V14.5A19.212,19.212,0,0,0,53.85,9Z" transform="translate(2.4 6)"/>
              </g>
            </g>
          </g>
          <g id="Group_47" data-name="Group 47">
            <rect id="Rectangle_83" data-name="Rectangle 83" class="cls-14" width="390" height="120" transform="translate(120 500)"/>
            <text id="_TheNadekoBot" data-name="@TheNadekoBot" class="cls-11" transform="translate(160 572)"><tspan x="0" y="0">@TheNadekoBot</tspan></text>
          </g>
        </g>
        <g id="Group_55" data-name="Group 55">
          <g id="Group_53" data-name="Group 53">
            <rect id="Rectangle_83-2" data-name="Rectangle 83" class="cls-15" width="390" height="120" transform="translate(120 500)"/>
            <text id="Nadeko_6685" data-name="Nadeko#6685" class="cls-11" transform="translate(160 572)"><tspan x="0" y="0">Nadeko#6685</tspan></text>
          </g>
          <g id="Group_54" data-name="Group 54">
            <rect id="Rectangle_81-2" data-name="Rectangle 81" class="cls-16" width="120" height="120" transform="translate(0 500)"/>
            <path id="Path_60" data-name="Path 60" class="cls-1" d="M143.661,18.9a22.134,22.134,0,0,0-13.024-4.857l-.662.662c7.947,2.428,11.7,5.96,11.7,5.96a37.234,37.234,0,0,0-14.128-4.415,45.422,45.422,0,0,0-9.492,0h-.883a37.7,37.7,0,0,0-10.6,2.87l-2.649,1.325s3.974-3.753,12.362-6.181l-.441-.662a22.134,22.134,0,0,0-13.024,4.857A62.894,62.894,0,0,0,96.2,45.61s3.974,6.843,14.349,7.064c0,0,1.766-2.208,3.091-3.974-5.96-1.766-8.168-5.519-8.168-5.519a10.1,10.1,0,0,1,1.325.883l.221.221c.221,0,.221.221.441.221,1.1.662,2.428,1.1,3.311,1.545a42.592,42.592,0,0,0,6.843,1.987,32,32,0,0,0,12.141,0,46.71,46.71,0,0,0,6.843-1.987,39.447,39.447,0,0,0,5.3-2.649s-2.428,3.753-8.389,5.519c1.324,1.766,3.09,3.753,3.09,3.753,10.375-.221,14.349-7.064,14.349-7.064C150.5,31.04,143.661,18.9,143.661,18.9ZM114.522,41.636a5.318,5.318,0,1,1,4.857-5.3C119.158,39.429,117.171,41.636,114.522,41.636Zm17,0a5.318,5.318,0,1,1,4.856-5.3C136.156,39.429,134.169,41.636,131.52,41.636Z" transform="translate(-63.2 526.401)"/>
          </g>
        </g>
      </g>
    </g>
  </g>
</svg>
